<?xml version="1.0" encoding="UTF-8" standalone="no"?>
<!-- Created with Inkscape (http://www.inkscape.org/) -->

<svg
   version="1.1"
   id="svg1"
   width="2362"
   height="2200"
   viewBox="0 0 2362 2200"
   sodipodi:docname="Credits.png"
   xmlns:inkscape="http://www.inkscape.org/namespaces/inkscape"
   xmlns:sodipodi="http://sodipodi.sourceforge.net/DTD/sodipodi-0.dtd"
   xmlns="http://www.w3.org/2000/svg"
   xmlns:svg="http://www.w3.org/2000/svg">
  <defs
     id="defs1" />
  <sodipodi:namedview
     id="namedview1"
     pagecolor="#505050"
     bordercolor="#ffffff"
     borderopacity="1"
     inkscape:showpageshadow="0"
     inkscape:pageopacity="0"
     inkscape:pagecheckerboard="1"
     inkscape:deskcolor="#505050">
    <inkscape:page
       x="0"
       y="0"
       width="2362"
       height="2200"
       id="page2"
       margin="0"
       bleed="0" />
  </sodipodi:namedview>
  <g
     inkscape:groupmode="layer"
     inkscape:label="Image"
     id="g1">
    <path
       style="fill:#000000;stroke-width:1.88518"
       d="M 42.416452,925.62125 V 773.86461 l 106.983718,-0.0101 106.98372,-0.0101 7.3152,-21.19809 C 339.27405,533.6438 487.73466,342.49296 681.491,214.71724 803.00581,134.58234 935.80361,81.564649 1077.6623,56.551329 1151.7552,43.486847 1205.6192,39.50982 1286.6324,41.12211 c 63.1824,1.25743 94.8715,4.11987 152.6992,13.793165 163.7472,27.391276 315.9289,91.884245 450.557,190.941215 11.9237,8.77326 25.8942,19.39679 31.0455,23.60786 5.1512,4.21107 14.907,12.20648 21.6795,17.76757 22.7227,18.6584 67.822,61.31376 90.1236,85.23971 77.0072,82.616 132.3976,162.91709 181.2974,262.83257 14.1761,28.96582 38.1029,84.53851 42.4091,98.50043 l 1.3083,4.24164 h -219.4337 -219.4336 l -11.4649,-16.49528 c -25.5029,-36.69291 -45.2584,-60.34553 -76.801,-91.9513 -78.5572,-78.71443 -175.4928,-136.02918 -283.7465,-167.76968 -27.2652,-7.99429 -55.3178,-13.91423 -95.2013,-20.09035 -25.1942,-3.90141 -34.8559,-4.37891 -88.6033,-4.37891 -63.5673,0 -82.4209,1.74025 -134.7901,12.4415 -205.30495,41.95257 -382.04978,184.37684 -468.82745,377.78987 -31.22744,69.6008 -51.34227,151.57374 -56.40349,229.85838 l -1.28833,19.9274 H 322.08739 42.416452 Z M 562.1151,999.1431 c 2.34425,-16.58954 5.97987,-38.22193 8.07917,-48.07198 2.09927,-9.85004 4.17679,-19.60582 4.61673,-21.67952 3.72604,-17.56335 17.83235,-61.49469 29.96376,-93.31619 13.22279,-34.68431 39.96684,-87.00069 60.05838,-117.48549 3.97759,-6.0352 7.23198,-11.32142 7.23198,-11.74717 0,-3.52664 41.60902,-57.03814 62.95563,-80.96443 76.71549,-85.98635 173.19484,-152.18373 280.20635,-192.25796 35.1688,-13.17022 88.8494,-28.37433 93.661,-26.52793 1.4403,0.5527 2.1768,0.28971 1.6365,-0.5844 -1.058,-1.71197 33.02,-8.09172 69.5954,-13.02896 33.2743,-4.49164 136.3457,-4.3738 168.3542,0.19249 90.4326,12.901 157.1613,32.99029 230.7258,69.46224 27.6515,13.70907 45.9518,24.35374 75.0416,43.64917 22.1508,14.6927 29.9073,20.21202 43.3529,30.8489 50.8361,40.21681 101.7983,92.39898 135.4329,138.6749 l 10.619,14.61011 h 170.9962 c 94.0478,0 171.4369,-0.71327 171.9757,-1.58504 0.5388,-0.87178 -7.9095,-19.52761 -18.7737,-41.4574 -10.8643,-21.92982 -19.666,-40.42119 -19.5591,-41.09195 0.1069,-0.67076 -0.6174,-1.73857 -1.6096,-2.37293 -0.992,-0.63434 -7.5688,-10.90913 -14.6148,-22.83287 -32.6839,-55.30847 -72.9444,-109.936 -117.9685,-160.06578 -22.2784,-24.80478 -75.9052,-76.96292 -98.7541,-96.0496 -52.0996,-43.52092 -118.2158,-88.57943 -173.4362,-118.19741 -9.3316,-5.00511 -17.3907,-9.57392 -17.9092,-10.15291 -0.5184,-0.579 -1.7909,-1.20128 -2.8277,-1.38285 -1.0369,-0.18156 -12.4893,-5.39206 -25.4499,-11.57886 -12.9606,-6.18682 -33.3205,-15.24997 -45.2442,-20.14035 -11.9237,-4.89037 -22.5279,-9.41113 -23.5647,-10.04611 -1.0368,-0.63498 -3.4572,-1.39916 -5.3786,-1.69818 -1.9213,-0.29901 -8.708,-2.62643 -15.0814,-5.17204 -19.9657,-7.97457 -72.2597,-23.9611 -99.2487,-30.34087 C 1420.9723,96.369375 1356.9778,88.524471 1271.551,87.864458 1114.6882,86.652527 979.31145,116.10215 832.30506,183.41728 c -15.03428,6.88428 -27.75922,13.01751 -28.27764,13.6294 -0.51842,0.61188 -7.72922,4.45728 -16.02399,8.54534 -8.29478,4.08806 -15.36418,8.06908 -15.70979,8.84671 -0.34563,0.77764 -1.28878,1.41388 -2.09592,1.41388 -2.14017,0 -48.54678,28.43514 -71.66271,43.91053 -53.27776,35.66777 -97.80365,72.49952 -146.23285,120.96356 -33.96402,33.98846 -40.44396,40.93079 -62.69491,67.16868 -30.08641,35.47727 -67.77248,88.33217 -93.97203,131.79614 -12.10607,20.08349 -36.11631,65.00574 -43.07476,80.59126 -2.89323,6.48029 -5.85153,11.78234 -6.57398,11.78234 -0.72244,0 -1.36182,1.06042 -1.42082,2.35647 -0.059,1.29606 -4.1127,11.68809 -9.00822,23.09341 -12.28137,28.61255 -27.174,68.75356 -36.54439,98.50042 L 291.1447,820.994 H 190.34527 89.545844 v 104.63462 104.63458 l 234.153486,-0.4786 234.15348,-0.4787 z"
       id="path5" />
    <path
       style="fill:#000000;stroke-width:1.88518"
       d="m 1185.4327,2151.9165 c -49.6669,-4.1243 -109.3958,-13.2628 -156.1268,-23.8873 -283.9233,-64.5516 -526.35611,-241.6105 -677.11357,-494.5245 -31.56018,-52.946 -63.76545,-122.2106 -85.66821,-184.2483 L 256.38389,1420.535 149.40017,1420.507 42.416452,1420.48 V 1268.7232 1116.9666 H 322.08739 601.75833 l 1.28833,19.9274 c 5.04188,77.9853 23.87946,155.5231 54.95243,226.1909 16.98534,38.6289 29.90085,62.1411 54.82759,99.8114 48.4698,73.2496 111.52086,136.3264 184.51694,184.592 67.54982,44.6646 127.04888,70.9994 204.54158,90.532 51.7329,13.0396 84.3216,17.4859 141.3882,19.2907 110.7309,3.502 218.1525,-19.7797 315.0681,-68.2854 97.0363,-48.5661 182.0628,-121.497 244.4014,-209.634 l 16.3338,-23.0934 h 219.2105 c 120.5658,0 219.2107,0.6882 219.2107,1.5294 0,4.2369 -30.2532,74.5509 -45.0109,104.6137 -81.268,165.5498 -204.3362,306.8125 -358.1383,411.0853 -108.898,73.8294 -231.1124,126.3945 -361.2896,155.3928 -45.4603,10.1267 -55.0475,11.675 -131.9623,21.3102 -19.7537,2.4746 -151.0001,3.735 -175.6641,1.6869 z m 152.0994,-47.1755 c 53.1536,-4.2697 107.1175,-12.5043 152.6993,-23.3012 10.8869,-2.5787 21.9151,-5.097 24.5072,-5.5962 8.3084,-1.5999 49.3521,-13.9713 69.7666,-21.029 10.8786,-3.761 20.6276,-7.0741 21.6645,-7.3625 1.0368,-0.2885 3.5818,-1.2007 5.6555,-2.0273 2.0737,-0.8265 13.5261,-5.2682 25.4499,-9.8703 11.9237,-4.6021 33.4199,-13.8129 47.7693,-20.4684 14.3494,-6.6555 26.9934,-11.5426 28.0977,-10.8601 1.1042,0.6825 1.4979,0.4159 0.8747,-0.5923 -0.6231,-1.0083 3.6995,-4.2029 9.6059,-7.0992 20.9023,-10.2498 67.652,-37.6504 94.6179,-55.4568 53.6559,-35.4305 93.8002,-67.444 140.4569,-112.009 72.2384,-68.9997 123.4911,-133.365 176.739,-221.9564 11.7407,-19.5335 52.2763,-98.7994 52.3001,-102.2708 0.01,-0.7777 -77.5147,-1.4139 -172.267,-1.4139 h -172.2768 l -3.3258,5.0759 c -4.4193,6.7447 -29.8804,39.3861 -37.2142,47.709 -23.019,26.1237 -40.7748,44.4462 -58.7664,60.6422 -36.9001,33.2175 -46.2348,40.7344 -78.3337,63.0796 -28.639,19.9365 -82.9171,51.6181 -82.9766,48.4325 -0.016,-0.8502 -0.6601,-0.5535 -1.4317,0.6594 -0.7716,1.2129 -2.6471,2.4854 -4.1679,2.8278 -1.5208,0.3423 -3.8154,1.592 -5.0993,2.7771 -2.2437,2.0712 -56.004,25.3352 -59.9348,25.936 -1.0542,0.1612 -2.765,0.8062 -3.8019,1.4333 -8.077,4.8858 -87.7808,27.1514 -110.2827,30.8079 -58.398,9.4895 -89.0288,12.2539 -135.5313,12.2313 -47.9876,-0.023 -125.9913,-7.5558 -123.3023,-11.9068 0.6363,-1.0294 0.1866,-1.2623 -1.0098,-0.5229 -1.8678,1.1544 -9.3422,0.1843 -26.2586,-3.4081 -90.1312,-19.1405 -194.65813,-66.057 -264.36191,-118.658 -5.69857,-4.3004 -11.21271,-8.4197 -12.25364,-9.1541 -1.04094,-0.7344 -12.48022,-10.066 -25.42065,-20.7369 -39.80558,-32.8245 -87.31842,-83.1465 -116.2152,-123.0864 -17.66329,-24.4134 -27.11612,-38.6459 -25.6869,-38.675 0.78094,-0.016 0.47222,-0.6521 -0.68603,-1.4138 -6.0914,-4.0063 -36.31582,-59.1375 -51.91776,-94.7013 -16.99186,-38.732 -36.63684,-96.8851 -40.3286,-119.3807 -0.36989,-2.2541 -1.92622,-9.1882 -3.45849,-15.4093 -1.53225,-6.2211 -3.29298,-14.2802 -3.91272,-17.9092 -4.40582,-25.799 -5.02702,-30.934 -4.14857,-34.2932 0.54414,-2.0808 0.41055,-3.1941 -0.29682,-2.474 -0.70739,0.7201 -2.13449,-5.3464 -3.17134,-13.481 l -1.88517,-14.7903 -234.23308,-0.4787 -234.233076,-0.4787 v 104.6347 104.6346 H 190.3478 291.14977 l 6.87384,22.1508 c 7.84403,25.2771 23.18846,67.978 30.06105,83.6547 2.55687,5.8323 4.64884,11.1968 4.64884,11.921 0,0.7242 4.24165,10.2643 9.42588,21.2002 5.18424,10.936 9.42588,20.2446 9.42588,20.6859 0,1.5334 32.62702,62.0026 43.03539,79.7596 39.52893,67.4374 92.63492,135.7196 151.11397,194.298 31.01685,31.0696 64.11971,62.3797 64.11971,60.6472 0,-0.4259 4.87789,3.4299 10.83976,8.5686 66.60137,57.4055 174.30649,121.7981 262.42559,156.894 93.49169,37.2355 175.15302,57.4255 279.09112,69.0027 24.7478,2.7565 139.2462,6.4353 150.8141,4.8455 2.5921,-0.3562 13.6203,-1.3632 24.5072,-2.2377 z"
       id="path6" />
    <path
       style="fill:#000000;stroke-width:1.88518"
       d="M 1130.1628,925.62125 V 773.86461 h 569.9768 569.9769 l 7.7635,25.92117 c 14.6276,48.83928 23.6731,91.38188 32.2536,151.69558 6.0785,42.72601 9.5549,82.47804 9.5674,109.40124 l 0.01,16.4953 h -594.773 -594.7729 z m 1140.9133,101.32815 c 0.3621,-1.8144 0.026,-7.9648 -0.7477,-13.6675 -0.7733,-5.7026 -2.785,-22.24505 -4.4704,-36.76091 -3.0521,-26.2856 -8.3652,-60.86515 -12.2305,-79.59867 -1.1174,-5.41594 -2.342,-12.20258 -2.7211,-15.0814 -0.3792,-2.87883 -0.8075,-5.23424 -0.9517,-5.23424 -0.1442,0 -3.4443,-12.30077 -7.3336,-27.33504 l -7.0713,-27.33505 -529.1288,-0.47461 -529.1288,-0.4746 v 104.63056 104.63056 h 546.5627 c 519.0283,0 546.5959,-0.1662 547.2212,-3.2991 z"
       id="path7" />
    <path
       style="fill:#000000;stroke-width:1.88518"
       d="m 1130.1628,1264.9529 v -151.7567 h 594.7729 594.773 v 18.2739 c 0,53.7674 -11.6857,141.8122 -27.9749,210.775 -5.8294,24.6796 -7.3611,30.4723 -15.577,58.9117 l -4.493,15.5527 h -570.7505 -570.7505 z m 1105.9093,104.0593 c 0.5866,-0.5867 9.6437,-36.5994 15.503,-61.6429 3.6674,-15.6752 9.2525,-49.0562 13.563,-81.0625 3.2577,-24.1894 3.2389,-24.0069 4.6882,-45.7155 l 1.3529,-20.2657 h -546.9435 -546.9435 v 104.3131 c 0,57.3722 0.3534,104.6665 0.7854,105.0985 0.8602,0.8604 1057.133,0.1365 1057.9945,-0.725 z"
       id="path8" />
  </g>
</svg>
